<?xml version="1.0" encoding="utf-8"?>
<!-- Generator: Adobe Illustrator 21.0.2, SVG Export Plug-In . SVG Version: 6.00 Build 0)  -->
<svg version="1.1" id="Layer_1" xmlns="http://www.w3.org/2000/svg" xmlns:xlink="http://www.w3.org/1999/xlink" x="0px" y="0px"
	 viewBox="0 0 24 24" style="enable-background:new 0 0 24 24;" xml:space="preserve">
<style type="text/css">
	.st0{fill:#1A237E;}
</style>
<path class="st0" d="M5,3h14c1.1,0,2,0.9,2,2v14c0,1.1-0.9,2-2,2h-4.4c-0.3-0.1-0.3-0.7-0.3-0.9l0-2.5c0-0.8-0.3-1.4-0.6-1.7
	c2-0.2,4.1-1,4.1-4.4c0-1-0.4-1.8-0.9-2.4c0.1-0.2,0.4-1.1-0.1-2.4c0,0-0.8-0.2-2.5,0.9c-0.7-0.2-1.5-0.3-2.2-0.3
	c-0.8,0-1.5,0.1-2.2,0.3C8,6.5,7.3,6.7,7.3,6.7C6.8,8,7.1,8.9,7.2,9.1c-0.6,0.6-0.9,1.4-0.9,2.4c0,3.5,2.1,4.2,4.1,4.5
	c-0.3,0.2-0.5,0.6-0.6,1.2c-0.5,0.2-1.8,0.6-2.6-0.8c0,0-0.5-0.9-1.4-0.9c0,0-0.9,0-0.1,0.5c0,0,0.6,0.3,1,1.3c0,0,0.5,1.8,3,1.2
	l0,1.5c0,0.2,0,0.8-0.3,0.9H5c-1.1,0-2-0.9-2-2V5C3,3.9,3.9,3,5,3z"/>
</svg>
