<svg id="011d71de-84b5-4de6-ade5-1d90ca175a3e" data-name="Calque 1" xmlns="http://www.w3.org/2000/svg" width="139" height="233.01" viewBox="0 0 139 233.01"><title>logo</title><path d="M1.13,176.23A1,1,0,0,1,0,175.1v-23A1,1,0,0,1,1.13,151H6.72c9.17,0,12.85,3.61,12.85,12.64s-3.68,12.63-12.85,12.63Zm5.59-2.47c7.26,0,10.16-2.91,10.16-10.16S14,153.44,6.72,153.44H2.58v20.32Z" style="fill:#fff"/><path d="M24.07,176.23a1,1,0,0,1-1.13-1.13v-23A1,1,0,0,1,24.07,151H36.46a1,1,0,0,1,1.13,1.14v.21a1,1,0,0,1-1.13,1.13H25.52v7.08H35.78a1,1,0,0,1,1.14,1.13v.21A1,1,0,0,1,35.78,163H25.52v10.76H36.46a1,1,0,0,1,1.13,1.13v.21a1,1,0,0,1-1.13,1.13Z" style="fill:#fff"/><path d="M50.79,176.23a1.27,1.27,0,0,1-1.31-.88l-9.73-23.08c-.35-.78,0-1.31.85-1.31H41a1.26,1.26,0,0,1,1.31.89l8.92,21.06,8.89-21.06a1.26,1.26,0,0,1,1.3-.89h.43c.85,0,1.2.53.85,1.31L53,175.35a1.27,1.27,0,0,1-1.31.88Z" style="fill:#fff"/><path d="M67.25,176.23a1,1,0,0,1-1.13-1.13v-23A1,1,0,0,1,67.25,151H78.61a1,1,0,0,1,1.14,1.14v.21a1,1,0,0,1-1.14,1.13H68.7v7.08h9.1a1,1,0,0,1,1.13,1.13v.21A1,1,0,0,1,77.8,163H68.7v12.1a1,1,0,0,1-1.13,1.13Z" style="fill:#fff"/><path d="M84.77,176.23a1,1,0,0,1-1.13-1.13v-23A1,1,0,0,1,84.77,151H97.16a1,1,0,0,1,1.13,1.14v.21a1,1,0,0,1-1.13,1.13H86.23v7.08H96.49a1,1,0,0,1,1.13,1.13v.21A1,1,0,0,1,96.49,163H86.23v10.76H97.16a1,1,0,0,1,1.13,1.13v.21a1,1,0,0,1-1.13,1.13Z" style="fill:#fff"/><path d="M115.14,156.13a1.38,1.38,0,0,1-1.34-.85,4.46,4.46,0,0,0-3.75-2.12,4.31,4.31,0,0,0-4.57,4.17c0,2.2,1.52,3.19,4.57,4.14,4.7,1.49,8.21,3.33,8.21,7.75s-3.65,7.33-8.21,7.33a8.06,8.06,0,0,1-7.89-5.52c-.22-.78.21-1.24,1-1.24h.43a1.25,1.25,0,0,1,1.27,1,5.51,5.51,0,0,0,5.17,3.22c3.08,0,5.52-1.81,5.52-4.75,0-2.33-1.52-3.6-5.52-4.84-4.71-1.45-7.26-3.22-7.26-7s2.9-6.76,7.26-6.76a7,7,0,0,1,6.62,4.29c.28.77-.15,1.27-1,1.27Z" style="fill:#fff"/><path d="M129,176.23a1,1,0,0,1-1.13-1.13V153.44h-7.43a1,1,0,0,1-1.14-1.13v-.21a1,1,0,0,1,1.14-1.14h17.41A1,1,0,0,1,139,152.1v.21a1,1,0,0,1-1.13,1.13h-7.4V175.1a1,1,0,0,1-1.13,1.13Z" style="fill:#fff"/><path d="M2,233a1.82,1.82,0,0,1-2-2V189.58a1.82,1.82,0,0,1,2-2h.57a1.82,1.82,0,0,1,2,2v39H23.56a1.82,1.82,0,0,1,2,2V231a1.82,1.82,0,0,1-2,2Z" style="fill:#fff"/><path d="M34.64,233a1.82,1.82,0,0,1-2-2V189.58a1.82,1.82,0,0,1,2-2h.57a1.82,1.82,0,0,1,2,2V231a1.82,1.82,0,0,1-2,2Z" style="fill:#fff"/><path d="M49.47,233a1.82,1.82,0,0,1-2-2V189.58a1.81,1.81,0,0,1,2-2h.58a1.82,1.82,0,0,1,2,2v39H71a1.82,1.82,0,0,1,2,2V231a1.82,1.82,0,0,1-2,2Z" style="fill:#fff"/><path d="M82.08,233a1.82,1.82,0,0,1-2-2V189.58a1.82,1.82,0,0,1,2-2h.57a1.82,1.82,0,0,1,2,2v39H103.6a1.82,1.82,0,0,1,2,2V231a1.82,1.82,0,0,1-2,2Z" style="fill:#fff"/><path d="M114.68,233a1.82,1.82,0,0,1-2-2V189.58a1.82,1.82,0,0,1,2-2H137a1.82,1.82,0,0,1,2,2V190a1.82,1.82,0,0,1-2,2H117.29v12.74h18.46a1.82,1.82,0,0,1,2,2v.39a1.82,1.82,0,0,1-2,2H117.29v19.36H137a1.82,1.82,0,0,1,2,2V231a1.82,1.82,0,0,1-2,2Z" style="fill:#fff"/><g style="opacity:0.25"><circle cx="118.26" cy="14.26" r="10.11"/><circle cx="118.26" cy="45.04" r="10.11"/><circle cx="118.26" cy="75.82" r="10.11"/><rect x="20.63" y="4" width="19.9" height="123.42" /><rect x="50.03" y="4" width="19.9" height="123.42" /><rect x="79.43" y="4" width="19.9" height="123.42" /></g><circle cx="116.26" cy="10.26" r="10.11" style="fill:#0e6993"/><circle cx="116.26" cy="41.04" r="10.11" style="fill:#c52127"/><circle cx="116.26" cy="71.82" r="10.11" style="fill:#f7981d"/><rect x="18.63" width="19.9" height="123.42" style="fill:#0e6993"/><rect x="48.03" width="19.9" height="123.42" style="fill:#c52127"/><rect x="77.43" width="19.9" height="123.42"  style="fill:#f7981d"/></svg>
