<?xml version="1.0" encoding="UTF-8" standalone="no"?>
<!-- Created with Inkscape (http://www.inkscape.org/) -->

<svg
   xmlns:dc="http://purl.org/dc/elements/1.1/"
   xmlns:cc="http://creativecommons.org/ns#"
   xmlns:rdf="http://www.w3.org/1999/02/22-rdf-syntax-ns#"
   xmlns:svg="http://www.w3.org/2000/svg"
   xmlns="http://www.w3.org/2000/svg"
   xmlns:sodipodi="http://sodipodi.sourceforge.net/DTD/sodipodi-0.dtd"
   xmlns:inkscape="http://www.inkscape.org/namespaces/inkscape"
   width="99.213486mm"
   height="46.116783mm"
   viewBox="0 0 351.54385 163.40592"
   id="svg5661"
   version="1.1"
   inkscape:version="0.91 r13725"
   sodipodi:docname="devfest-blue.svg"
   inkscape:export-filename="C:\Documents\S624332\Documents\My Pictures\Logo\devfest-free.png"
   inkscape:export-xdpi="300"
   inkscape:export-ydpi="300">
  <defs
     id="defs5663" />
  <sodipodi:namedview
     id="base"
     pagecolor="#ffffff"
     bordercolor="#666666"
     borderopacity="1.0"
     inkscape:pageopacity="0.0"
     inkscape:pageshadow="2"
     inkscape:zoom="0.70000001"
     inkscape:cx="-487.42383"
     inkscape:cy="111.62228"
     inkscape:document-units="px"
     inkscape:current-layer="layer1"
     showgrid="false"
     inkscape:window-width="1600"
     inkscape:window-height="848"
     inkscape:window-x="312"
     inkscape:window-y="1072"
     inkscape:window-maximized="1"
     fit-margin-top="10"
     fit-margin-left="10"
     fit-margin-right="10"
     fit-margin-bottom="10" />
  <metadata
     id="metadata5666">
    <rdf:RDF>
      <cc:Work
         rdf:about="">
        <dc:format>image/svg+xml</dc:format>
        <dc:type
           rdf:resource="http://purl.org/dc/dcmitype/StillImage" />
        <dc:title />
      </cc:Work>
    </rdf:RDF>
  </metadata>
  <g
     inkscape:label="Calque 1"
     inkscape:groupmode="layer"
     id="layer1"
     transform="translate(-275.87986,-599.2938)">
    <path
       inkscape:export-ydpi="300"
       inkscape:export-xdpi="300"
       style="fill:#3f51b5;fill-opacity:1"
       d="m 327.13157,674.31077 c 1.4117,0 1.97341,0.9923 1.247,2.1995 l -8.17576,13.6033 c -0.0457,0.07 -0.1201,0.1312 -0.16064,0.1963 -7.91353,13.1998 -4.79728,8.0642 -4.79728,8.0642 -0.72641,1.2079 -0.72641,3.1845 0,4.3958 l 8.12226,13.5195 c 0.04,0.09 0.0601,0.1943 0.11267,0.2811 l 4.98464,8.3007 c 0.50997,1.0913 -0.0206,1.9586 -1.33289,1.9586 l -7.90547,0 c -1.40428,0 -3.15406,-0.9855 -3.87818,-2.1973 l -5.00698,-8.3319 -8.12779,-13.5307 c -0.72527,-1.2118 -0.72527,-3.1879 0,-4.3958 l 13.13477,-21.8638 c 0.72412,-1.2072 2.4739,-2.1995 3.87818,-2.1995 z"
       id="path4150"
       inkscape:connector-curvature="0"
       sodipodi:nodetypes="sccccccccsscccccss" />
    <path
       sodipodi:nodetypes="ccccccccssccccccscccccccc"
       inkscape:export-ydpi="300"
       inkscape:export-xdpi="300"
       style="fill:#7986cb;fill-opacity:1"
       d="m 319.09658,674.39247 c -1.39431,0 -3.13045,0.9921 -3.84943,2.1993 l -0.6962,1.1679 -0.002,0 c -0.0205,0.035 -0.22805,0.3834 -0.25404,0.4278 l -4.61738,7.7422 c -0.0233,0.026 -0.0458,0.05 -0.0641,0.078 l -7.67131,12.71064 c -0.72126,1.2072 -0.16444,2.1992 1.23724,2.1992 l 7.85013,0 c 1.39431,0 3.13045,-0.992 3.84943,-2.1992 l 0.25947,-0.28874 0.37622,-0.6348 4.48551,-7.5176 c 0.0245,-0.027 0.0487,-0.053 0.0679,-0.082 l 8.11775,-13.6035 c 0.72126,-1.2072 0.16249,-2.1993 -1.23919,-2.1993 l -7.85013,0 z m -4.54757,3.3672 c 0.47525,-0.8154 -0.0136,-0.012 -0.0136,-0.012 0.005,0 0.009,0.01 0.0136,0.012 z m 0.58954,20.6719 c -0.47929,0.8222 0.45243,-0.86986 0.45243,-0.86986 0,0 -0.45043,0.87786 -0.45243,0.86986 z"
       id="path4152"
       inkscape:connector-curvature="0" />
    <path
       inkscape:export-ydpi="300"
       inkscape:export-xdpi="300"
       sodipodi:nodetypes="sccccccccsscccccss"
       inkscape:connector-curvature="0"
       id="path4154"
       d="m 318.63639,674.15987 c -1.4117,0 -1.98295,0.9923 -1.26815,2.1995 l 8.04493,13.6033 c 0.045,0.07 0.11884,0.1312 0.15875,0.1963 7.78659,13.1998 4.71973,8.0642 4.71973,8.0642 0.71479,1.2079 0.69579,3.1845 -0.0423,4.3958 l -8.25228,13.5195 c -0.0409,0.09 -0.062,0.1943 -0.11537,0.2811 l -5.06447,8.3007 c -0.52047,1.0913 0.002,1.9586 1.31405,1.9586 l 7.90547,0 c 1.40428,0 3.16354,-0.9855 3.89931,-2.1973 l 5.08711,-8.3319 8.25792,-13.5307 c 0.73692,-1.2118 0.75592,-3.1879 0.0423,-4.3958 l -12.9245,-21.8638 c -0.71251,-1.2072 -2.45275,-2.1995 -3.85703,-2.1995 z"
       style="fill:#c5cae9;fill-opacity:1" />
    <path
       inkscape:export-ydpi="300"
       inkscape:export-xdpi="300"
       sodipodi:nodetypes="sccccccccsscccccss"
       inkscape:connector-curvature="0"
       id="path4156"
       d="m 319.15494,635.10957 c -2.472,0 -3.4556,1.7376 -2.1836,3.8516 l 14.3164,23.8204 c 0.08,0.123 0.2103,0.2297 0.2813,0.3437 13.8572,23.1139 8.4004,14.1211 8.4004,14.1211 1.272,2.115 1.272,5.5763 0,7.6973 l -14.2227,23.6738 c -0.07,0.158 -0.1053,0.3402 -0.1973,0.4922 l -8.7285,14.5351 c -0.893,1.911 0.036,3.4297 2.334,3.4297 l 13.8431,0 c 2.459,0 5.523,-1.7256 6.791,-3.8476 l 8.7676,-14.5899 14.2324,-23.6933 c 1.27,-2.122 1.27,-5.5823 0,-7.6973 l -23,-38.2852 c -1.268,-2.114 -4.332,-3.8516 -6.791,-3.8516 z"
       style="fill:#303f9f;fill-opacity:1" />
    <path
       inkscape:export-ydpi="300"
       inkscape:export-xdpi="300"
       inkscape:connector-curvature="0"
       id="path4158"
       d="m 333.39472,634.91924 c 2.49515,0 5.52461,1.6917 6.71705,3.7502 l 1.15476,1.9914 0.003,0 c 0.034,0.06 0.37817,0.654 0.42124,0.7296 l 7.65882,13.202 c 0.0396,0.044 0.0781,0.085 0.10855,0.1329 l 13.4655,23.1966 c 1.1965,2.0585 0.12267,3.7501 -2.38565,3.7501 l -14.04796,0 c -2.49514,0 -5.52458,-1.6916 -6.71702,-3.7501 l -1.17104,-2.0148 -0.62372,-1.0825 -7.44038,-12.8189 c -0.0417,-0.046 -0.083,-0.091 -0.11514,-0.1399 l -13.46554,-23.1966 c -1.1965,-2.0584 -0.11919,-3.7502 2.38915,-3.7502 l 14.04794,0 z m 7.87527,5.7416 c -0.78685,-1.3903 0.0253,-0.021 0.0253,-0.021 -0.008,0 -0.0168,0.017 -0.0253,0.021 z m -2.6678,35.2496 c 0.79354,1.4021 -0.0127,0.039 -0.0127,0.039 0.004,-0.016 0.008,-0.025 0.0127,-0.039 z"
       style="fill:#1a237e;fill-opacity:1" />
    <text
       inkscape:export-ydpi="300"
       inkscape:export-xdpi="300"
       sodipodi:linespacing="125%"
       id="text4160"
       y="723.97314"
       x="510.20721"
       style="font-style:normal;font-variant:normal;font-weight:normal;font-stretch:normal;font-size:59.66125107px;line-height:125%;font-family:'Didact Gothic';-inkscape-font-specification:'Didact Gothic, Normal';text-align:start;letter-spacing:0px;word-spacing:0px;writing-mode:lr-tb;text-anchor:start;fill:#1a237e;fill-opacity:1;stroke:none;stroke-width:1px;stroke-linecap:butt;stroke-linejoin:miter;stroke-opacity:1"
       xml:space="preserve"><tspan
         y="723.97314"
         x="510.20721"
         id="tspan4162"
         sodipodi:role="line">Lille</tspan></text>
    <text
       inkscape:export-ydpi="300"
       inkscape:export-xdpi="300"
       sodipodi:linespacing="125%"
       id="text4164"
       y="723.97314"
       x="358.46332"
       style="font-style:normal;font-variant:normal;font-weight:normal;font-stretch:normal;font-size:59.66125107px;line-height:125%;font-family:'Didact Gothic';-inkscape-font-specification:'Didact Gothic, Normal';text-align:start;letter-spacing:0px;word-spacing:0px;writing-mode:lr-tb;text-anchor:start;fill:#323232;fill-opacity:1;stroke:none;stroke-width:1px;stroke-linecap:butt;stroke-linejoin:miter;stroke-opacity:1"
       xml:space="preserve"><tspan
         y="723.97314"
         x="358.46332"
         id="tspan4166"
         sodipodi:role="line">evfest</tspan></text>
  </g>
</svg>
