<?xml version="1.0" encoding="utf-8"?>
<!-- Generator: Adobe Illustrator 21.0.2, SVG Export Plug-In . SVG Version: 6.00 Build 0)  -->
<svg version="1.1" id="Layer_1" xmlns="http://www.w3.org/2000/svg" xmlns:xlink="http://www.w3.org/1999/xlink" x="0px" y="0px"
	 viewBox="0 0 24 24" style="enable-background:new 0 0 24 24;" xml:space="preserve">
<style type="text/css">
	.st0{fill:#1A237E;}
</style>
<path class="st0" d="M5,3h14c1.1,0,2,0.9,2,2v14c0,1.1-0.9,2-2,2H5c-1.1,0-2-0.9-2-2V5C3,3.9,3.9,3,5,3 M17.7,9.3
	c0.5-0.4,1-0.9,1.3-1.4c-0.4,0.2-0.9,0.3-1.4,0.4c0.5-0.4,0.9-0.8,1.1-1.5c-0.5,0.3-1.1,0.5-1.7,0.6c-1.5-1.9-5.3-0.3-4.6,2.4
	C9.8,9.8,8.2,8.6,6.8,7.2c-0.8,1.2-0.1,3.1,0.8,3.6c-0.5,0-0.8-0.2-1.1-0.3c0,1.5,0.9,2.3,2.1,2.7c-0.4,0.1-0.8,0.1-1.1,0
	c0.4,1.1,1.1,1.7,2.5,1.9C9,15.8,7.3,16.3,6,16.1c1.2,0.7,2.5,1.3,4.3,1.2C14.7,17.1,17.6,13.9,17.7,9.3z"/>
</svg>
