<svg id="e02c7a20-5146-4d3e-b808-5e74144aa476" data-name="Calque 1" xmlns="http://www.w3.org/2000/svg" width="146.66" height="241.63" viewBox="0 0 146.66 241.63"><title>logo-white</title><path d="M1.19,181.73A1.07,1.07,0,0,1,0,180.53V156.26a1.07,1.07,0,0,1,1.19-1.19h5.9c9.67,0,13.55,3.81,13.55,13.33s-3.88,13.33-13.55,13.33Zm5.9-2.61c7.65,0,10.72-3.06,10.72-10.72s-3.06-10.72-10.72-10.72H2.73v21.43Z" style="fill:#fff"/><path d="M25.4,181.73a1.07,1.07,0,0,1-1.2-1.2V156.26a1.07,1.07,0,0,1,1.2-1.19H38.47a1.07,1.07,0,0,1,1.19,1.19v.22a1.07,1.07,0,0,1-1.19,1.19H26.93v7.47H37.76A1.07,1.07,0,0,1,39,166.34v.22a1.07,1.07,0,0,1-1.19,1.19H26.93v11.35H38.47a1.07,1.07,0,0,1,1.19,1.19v.22a1.07,1.07,0,0,1-1.19,1.2Z" style="fill:#fff"/><path d="M53.59,181.73a1.34,1.34,0,0,1-1.38-.93L41.94,156.45c-.37-.82,0-1.38.9-1.38h.45a1.34,1.34,0,0,1,1.38.93l9.41,22.22L63.45,156a1.34,1.34,0,0,1,1.38-.93h.45c.9,0,1.27.56.9,1.38L55.91,180.79a1.34,1.34,0,0,1-1.38.93Z" style="fill:#fff"/><path d="M71,181.73a1.07,1.07,0,0,1-1.2-1.2V156.26a1.07,1.07,0,0,1,1.2-1.19h12a1.07,1.07,0,0,1,1.19,1.19v.22a1.07,1.07,0,0,1-1.19,1.19H72.49v7.47h9.6a1.07,1.07,0,0,1,1.19,1.19v.22a1.07,1.07,0,0,1-1.19,1.19h-9.6v12.77a1.07,1.07,0,0,1-1.19,1.2Z" style="fill:#fff"/><path d="M89.45,181.73a1.07,1.07,0,0,1-1.2-1.2V156.26a1.07,1.07,0,0,1,1.2-1.19h13.07a1.07,1.07,0,0,1,1.19,1.19v.22a1.07,1.07,0,0,1-1.19,1.19H91v7.47h10.83a1.07,1.07,0,0,1,1.19,1.19v.22a1.07,1.07,0,0,1-1.19,1.19H91v11.35h11.54a1.07,1.07,0,0,1,1.19,1.19v.22a1.07,1.07,0,0,1-1.19,1.2Z" style="fill:#fff"/><path d="M121.49,160.52a1.47,1.47,0,0,1-1.42-.9,4.71,4.71,0,0,0-4-2.24,4.54,4.54,0,0,0-4.82,4.41c0,2.31,1.61,3.36,4.82,4.37,5,1.57,8.66,3.51,8.66,8.18s-3.85,7.73-8.66,7.73a8.51,8.51,0,0,1-8.33-5.83c-.22-.82.22-1.31,1.08-1.31h.45a1.32,1.32,0,0,1,1.34,1,5.81,5.81,0,0,0,5.45,3.4c3.25,0,5.83-1.9,5.83-5,0-2.47-1.61-3.81-5.83-5.12-5-1.53-7.65-3.4-7.65-7.43s3.06-7.13,7.65-7.13a7.35,7.35,0,0,1,7,4.52c.3.82-.15,1.34-1,1.34Z" style="fill:#fff"/><path d="M136.13,181.73a1.07,1.07,0,0,1-1.2-1.2V157.68h-7.84a1.07,1.07,0,0,1-1.2-1.19v-.22a1.07,1.07,0,0,1,1.2-1.19h18.37a1.07,1.07,0,0,1,1.2,1.19v.22a1.07,1.07,0,0,1-1.2,1.19h-7.8v22.85a1.07,1.07,0,0,1-1.2,1.2Z" style="fill:#fff"/><path d="M2.15,241.63A1.92,1.92,0,0,1,0,239.48V195.81a1.92,1.92,0,0,1,2.15-2.15h.6a1.92,1.92,0,0,1,2.15,2.15v41.12h20A1.92,1.92,0,0,1,27,239.08v.4a1.92,1.92,0,0,1-2.15,2.15Z" style="fill:#fff"/><path d="M36.55,241.63a1.92,1.92,0,0,1-2.15-2.15V195.81a1.92,1.92,0,0,1,2.15-2.15h.6a1.92,1.92,0,0,1,2.15,2.15v43.67a1.92,1.92,0,0,1-2.15,2.15Z" style="fill:#fff"/><path d="M52.2,241.63a1.92,1.92,0,0,1-2.15-2.15V195.81a1.92,1.92,0,0,1,2.15-2.15h.6A1.92,1.92,0,0,1,55,195.81v41.12h20a1.92,1.92,0,0,1,2.15,2.15v.4a1.92,1.92,0,0,1-2.15,2.15Z" style="fill:#fff"/><path d="M86.6,241.63a1.92,1.92,0,0,1-2.15-2.15V195.81a1.92,1.92,0,0,1,2.15-2.15h.6a1.92,1.92,0,0,1,2.15,2.15v41.12h20a1.92,1.92,0,0,1,2.15,2.15v.4a1.92,1.92,0,0,1-2.15,2.15Z" style="fill:#fff"/><path d="M121,241.63a1.92,1.92,0,0,1-2.15-2.15V195.81a1.92,1.92,0,0,1,2.15-2.15h23.51a1.92,1.92,0,0,1,2.15,2.15v.4a1.92,1.92,0,0,1-2.15,2.15H123.75V211.8h19.48a1.92,1.92,0,0,1,2.15,2.15v.4a1.92,1.92,0,0,1-2.15,2.15H123.75v20.42h20.76a1.92,1.92,0,0,1,2.15,2.15v.4a1.92,1.92,0,0,1-2.15,2.15Z" style="fill:#fff"/><circle cx="124.53" cy="10.82" r="10.66" style="fill:#fff"/><circle cx="124.53" cy="43.3" r="10.66" style="fill:#fff"/><circle cx="124.53" cy="75.78" r="10.66" style="fill:#fff"/><rect x="21.52" width="21" height="130.22" rx="3" ry="3" style="fill:#fff"/><rect x="52.54" width="21" height="130.22" rx="3" ry="3" style="fill:#fff"/><rect x="83.56" width="21" height="130.22" rx="3" ry="3" style="fill:#fff"/></svg>