<?xml version="1.0" encoding="utf-8"?>
<!-- Generator: Adobe Illustrator 21.0.2, SVG Export Plug-In . SVG Version: 6.00 Build 0)  -->
<svg version="1.1" id="Layer_1" xmlns="http://www.w3.org/2000/svg" xmlns:xlink="http://www.w3.org/1999/xlink" x="0px" y="0px"
	 viewBox="0 0 24 24" style="enable-background:new 0 0 24 24;" xml:space="preserve">
<style type="text/css">
	.st0{fill:#1A237E;}
</style>
<path class="st0" d="M19.2,3c1,0,1.8,0.8,1.8,1.8v14.4c0,1-0.8,1.8-1.8,1.8H4.8c-1,0-1.8-0.8-1.8-1.8V4.8C3,3.8,3.8,3,4.8,3H19.2
	 M19.2,12h-1.8v-1.8h-0.9V12h-1.8v0.9h1.8v1.8h0.9v-1.8h1.8V12 M9.3,11.4v1.5h2.6c-0.1,0.6-0.8,1.9-2.6,1.9c-1.5,0-2.8-1.3-2.8-2.8
	s1.2-2.8,2.8-2.8c0.9,0,1.5,0.4,1.8,0.7l1.2-1.2c-0.8-0.8-1.8-1.2-3-1.2c-2.5,0-4.5,2-4.5,4.5s2,4.5,4.5,4.5c2.6,0,4.3-1.8,4.3-4.4
	c0-0.3,0-0.5-0.1-0.8H9.3z"/>
</svg>
