<?xml version="1.0" standalone="no"?>
<!DOCTYPE svg PUBLIC "-//W3C//DTD SVG 20010904//EN"
 "http://www.w3.org/TR/2001/REC-SVG-20010904/DTD/svg10.dtd">
<svg version="1.0" xmlns="http://www.w3.org/2000/svg"
 width="130.000000pt" height="130.000000pt" viewBox="0 0 130.000000 130.000000"
 preserveAspectRatio="xMidYMid meet">
<metadata>
Created by potrace 1.11, written by Peter Selinger 2001-2013
</metadata>
<g transform="translate(0.000000,130.000000) scale(0.100000,-0.100000)"
fill="#000000" stroke="none">
<path d="M93 1293 c-10 -4 -13 -142 -13 -644 l0 -639 23 -5 c12 -3 58 -5 102
-3 l80 3 3 625 c1 344 0 635 -3 648 -5 21 -10 22 -93 21 -48 0 -93 -3 -99 -6z"/>
<path d="M396 1284 c-8 -20 -8 -1248 0 -1268 5 -13 24 -16 99 -16 85 0 94 2
100 20 8 26 8 1234 0 1260 -6 18 -15 20 -100 20 -75 0 -94 -3 -99 -16z"/>
<path d="M712 1288 c-15 -19 -14 -1271 2 -1280 18 -12 184 -9 191 3 9 14 9
1264 0 1278 -9 16 -180 14 -193 -1z"/>
<path d="M1071 1288 c-103 -55 -71 -200 44 -200 69 0 116 62 99 129 -15 60
-92 98 -143 71z"/>
<path d="M1084 968 c-44 -11 -66 -41 -71 -95 -4 -44 -2 -51 27 -78 25 -24 40
-30 77 -30 37 0 49 5 69 28 44 52 44 104 -1 149 -30 30 -58 37 -101 26z"/>
<path d="M1054 631 c-30 -24 -44 -54 -44 -95 0 -102 151 -132 195 -39 34 72
-8 144 -87 149 -29 1 -50 -4 -64 -15z"/>
</g>
</svg>
