<?xml version="1.0" encoding="utf-8"?>
<!-- Generator: Adobe Illustrator 19.2.1, SVG Export Plug-In . SVG Version: 6.00 Build 0)  -->
<svg version="1.1" id="Calque_1" xmlns="http://www.w3.org/2000/svg" xmlns:xlink="http://www.w3.org/1999/xlink" x="0px" y="0px"
	 viewBox="0 0 425.2 141.7" style="enable-background:new 0 0 425.2 141.7;" xml:space="preserve">
<style type="text/css">
	.st0{fill:#FFFFFF;}
	.st1{fill:#262073;}
	.st2{fill:#EFD522;}
</style>
<path class="st0" d="M393.1,31.9H254.3l-7.3-6.2c-3.1-5.6-13.2-21.4-33.8-21.4c-18.9,0-31.7,14.3-33.6,27.5H32.3
	c-11.9,0-21.6,9.7-21.6,21.6v63c0,11.9,9.7,21.6,21.6,21.6h360.8c11.9,0,21.6-9.7,21.6-21.6v-63C414.7,41.6,405,31.9,393.1,31.9z"/>
<path class="st1" d="M256.8,38.4h135.6c8.3,0,15,6.7,15,15v62.3c0,8.3-6.8,15.1-15.1,15.1l-360.1,0c-8.3,0-15-6.8-15-15.1V53.4
	c0-8.3,6.7-15,15-15h147.2c-0.1-1-0.2-1.9-0.2-2.9c0-0.1,0-0.2,0-0.3h-147c-10.3,0-18.7,8.4-18.7,18.6v62.3
	c0,10.3,8.4,18.6,18.7,18.6h360.1c10.3,0,18.7-8.4,18.7-18.6V53.8c0-10.3-8.4-18.6-18.7-18.6H257C257,35.2,257.5,36.9,256.8,38.4z"
	/>
<path class="st1" d="M392.4,41.9H239.5l2.1,6.3l-3.2,3.1v6.9c0,1.8-0.6,3.7-2.5,3.7c-1.9,0-2-0.4-6.9-0.4c-4.9,0-9.5,0.5-12.5,1.2
	c4.5-2.7,8.9-3.1,17.6-3.1c1.2,0,1.6-0.8,1.6-1.8V50l2.7-2.6l-3-9h16.7l0,0c0.8,0,1.5-0.5,1.7-1.2c0.3-0.7,0.1-1.5-0.5-2l-10.3-8.8
	c-3.3-5.8-12.4-18.5-29.7-18.5c-17.7,0-30.1,14.5-30.2,27.6c0,0,0,0.1,0,0.1c0,0,0,0,0,0c0,0,0,0,0,0c0,0.1,0,0.1,0,0.2
	c0,0.5,0,1.1,0.1,1.6c0,0.3,0.1,0.7,0.1,1c0,0.2,0,0.4,0.1,0.6c0.1,1,0.3,1.9,0.5,2.7H32.2c-6.4,0-11.6,5.2-11.6,11.6v62.4
	c0,6.4,5.2,11.6,11.6,11.6l360.2,0c6.4,0,11.6-5.2,11.6-11.6V53.4C403.9,47,398.8,41.9,392.4,41.9z"/>
<path class="st2" d="M213.4,11.7c-15.6,0-26.5,12.7-26.5,24.1c0,10.2,6.4,14.7,10.9,14.7l0.1,0l21-0.8c1.1-0.1,1.5-0.3,1.6-0.4
	c0.1-0.1,0.1-0.5-0.4-1.9l0,0l-2.9-6.3c0,0,0-0.1-0.1-0.1c-0.2-0.6-0.9-2.6,0.2-4.2c1.1-1.6,3.3-1.8,4.9-1.8h25.1l-6.7-5.7
	c-0.2-0.1-0.3-0.3-0.4-0.5C236.6,22.3,228.5,11.7,213.4,11.7z"/>
<g>
	<path class="st2" d="M41.6,116.3L51.5,60H64c3.4,0,6,1.5,7.5,4.7l13.3,28.1L90.7,60h16.5l-7.9,47.8c-0.6,3.4-2.3,8.5-8.2,8.5H79.9
		L64,83.2l-5.7,33.1H41.6z"/>
	<path class="st2" d="M108.1,97.3c0-11,8.4-27.6,29.1-27.6c20.6,0,21.7,15.9,21.7,20c0,4.9-3.8,28.3-29.2,28.3
		C108.1,118.1,108.1,98.4,108.1,97.3z"/>
	<path class="st1" d="M123.6,96.7c0-7.5,5.2-17.5,12.1-17.5c5.2,0,7.6,4.9,7.6,10.9c0,6-3.1,18.2-11.9,18.2
		C124.2,108.3,123.6,97.9,123.6,96.7z"/>
	<path class="st2" d="M239,116.3l8-45.6h-13.1c-30.3,0-38.8,14.9-38.8,27.6c0,11.7,8.2,18.3,18.6,18.3c5.4,0,9.2-2.2,11.1-3.4
		l-0.4,3.1H239z"/>
	<path class="st2" d="M161.2,116.3l8-45.6h14.6l-1.1,6.5c4-3.9,7.4-7.4,14.8-7.4h6.4l-7.5,11.9h-7.6c-2.8,0-6.5,1.3-7.4,5.8
		l-4.2,24.3c-0.4,2.2-0.7,4.4-4.6,4.4H161.2z"/>
	<path class="st2" d="M335,96.8c0-11,8.4-27.6,29.1-27.6c20.6,0,21.7,15.9,21.7,20c0,4.9-3.8,28.3-29.3,28.3
		C335,117.5,335,97.9,335,96.8z"/>
	<path class="st1" d="M350.5,96.1c0-7.5,5.2-17.5,12.1-17.5c5.2,0,7.6,4.9,7.6,10.9c0,6-3.1,18.2-11.9,18.2
		C351.1,107.8,350.5,97.3,350.5,96.1z"/>
	<path class="st1" d="M230.7,79.4l-4.2,23.8c-1.3,1.9-3.2,4.9-7.9,4.9c-4.7,0-8.6-3.9-8.6-10.3C210,96.3,211.1,79.4,230.7,79.4z"/>
	<path class="st2" d="M308.4,65.1l-7,39.4c-1,6.7,0.8,12.8,11.6,12.8c2.2,0,7.8-0.7,10.9-1.9l5.9-11.7c-2.6,0.9-6.5,1.8-8.9,1.8
		c-2.4,0-3.4-0.8-3.1-3.5l3.6-21.7h10l5.9-9.6h-14.3l2.3-12.5L308.4,65.1z"/>
	<path class="st2" d="M255,70.7L250.6,96c-1.8,11.8,5.1,21.1,21.1,21.1c13.1,0,20.8-6.9,22.7-16.9c1.8-10.1,5-29.4,5-29.4h-14.6
		l-5.2,28.7c-0.8,4.3-1.5,6.9-7.6,6.9s-7.5-4.5-6.6-9.5l4.6-26.1H255z"/>
</g>
</svg>
